<svg xmlns="http://www.w3.org/2000/svg" viewBox="0 0 504.4 442.25"><g id="Layer_2" data-name="Layer 2"><g id="Layer_1-2" data-name="Layer 1"><path d="M411.09,286.67c-14.34,0-27.82,0-41.31,0-6.15,0-6.73-.52-6.73-6.42,0-27.33.17-54.66,0-82,0-4.38,1.31-5.61,5.7-5.59,42.66.18,85.33.13,128,.15,5.78,0,7.06,1.17,7.06,7q0,86.25-.18,172.5c0,2.93-2,6.3-4,8.71a171.08,171.08,0,0,1-59.17,46.44c-60.51,28.76-139.66,14.8-185.93-35-15.44-16.63-28.48-35.59-41.76-54.11C173,282.84,133.65,227.05,94.1,171.39a10.38,10.38,0,0,0-4-3.6V174Q90,302.5,90,431c0,8.47-1.28,9.73-9.86,9.73H10.6c-9,0-10.6-1.62-10.6-10.33q0-210,.1-420c0-7.16,1.3-8.54,8.33-8.54,25,0,50,.1,75-.08,3.84,0,6,1.32,8.17,4.31q47.7,67.27,95.54,134.43Q242,217.73,296.73,295a286.81,286.81,0,0,0,19.77,25.09c17.29,19.26,39.06,29.33,65.07,28.26,9-.37,17.89-3.33,26.78-5.33,1.07-.24,2.61-1.83,2.62-2.81C411.13,322.58,411.09,305,411.09,286.67Z"/><path d="M455.61,128.19c-6.14-5.65-11.71-11.64-18.12-16.54-47.62-36.41-105-10.94-123.84,30.55-12.29,27.09-14.2,54.82-3.9,83,.39,1.09.68,2.21,1,3.32,0,.12-.13.3-.42.9-5-7.3-9.73-14.47-14.68-21.5Q263.27,162,230.78,116.19c-1.95-2.75-2.3-5-1-8.13C252,55,289.38,17.93,346,4.82c60.59-14,113.17,2.71,155.9,48.62,3.18,3.42,3.34,5.66.43,9.62-15,20.4-29.51,41.11-44.21,61.71C457.27,126,456.38,127.14,455.61,128.19Z"/></g></g></svg>