<?xml version="1.0" standalone="no"?>
<!DOCTYPE svg PUBLIC "-//W3C//DTD SVG 20010904//EN"
 "http://www.w3.org/TR/2001/REC-SVG-20010904/DTD/svg10.dtd">
<svg version="1.0" xmlns="http://www.w3.org/2000/svg"
 width="700.000000pt" height="700.000000pt" viewBox="0 0 700.000000 700.000000"
 preserveAspectRatio="xMidYMid meet">
<metadata>
Created by potrace 1.14, written by Peter Selinger 2001-2017
</metadata>
<g transform="translate(0.000000,700.000000) scale(0.100000,-0.100000)"
fill="#000000" stroke="none">
<path d="M6899 6926 c-5 -5 -38 -12 -99 -22 -19 -3 -51 -9 -70 -14 -19 -5 -51
-12 -70 -15 -19 -3 -111 -22 -205 -41 -93 -19 -183 -37 -200 -40 -16 -3 -95
-18 -175 -35 -80 -16 -156 -32 -170 -34 -14 -3 -36 -7 -50 -10 -14 -3 -38 -8
-55 -10 -16 -3 -37 -8 -45 -10 -8 -2 -28 -7 -45 -9 -16 -3 -75 -15 -130 -26
-55 -11 -113 -23 -130 -26 -16 -3 -140 -27 -275 -55 -135 -27 -258 -52 -275
-55 -125 -22 -27 68 -1192 -1096 l-1071 -1071 -643 -1 -643 -1 -51 -66 c-27
-36 -59 -78 -70 -93 -30 -41 -95 -128 -116 -156 -11 -14 -46 -61 -79 -105 -33
-44 -63 -85 -68 -90 -71 -85 -890 -1191 -883 -1193 5 -2 54 8 108 22 344 89
796 167 1183 203 102 10 576 10 643 1 123 -17 197 -31 197 -38 0 -4 -20 -32
-43 -61 -24 -30 -154 -196 -288 -369 -134 -173 -249 -322 -256 -330 -13 -15
-163 -209 -275 -354 -33 -43 -66 -86 -74 -95 -7 -9 -106 -135 -219 -281 -246
-317 -275 -355 -297 -383 -63 -80 -277 -355 -366 -471 -59 -77 -119 -153 -133
-170 -57 -69 -192 -250 -179 -240 18 14 293 227 335 260 51 39 190 148 221
171 59 46 110 85 139 109 17 13 139 108 272 211 133 103 337 262 453 353 273
212 360 279 399 310 18 14 50 39 71 55 21 17 132 103 246 192 115 89 310 241
434 337 124 97 229 174 235 173 10 -4 66 -158 79 -217 34 -165 48 -289 49
-440 0 -90 -10 -258 -18 -300 -2 -10 -6 -43 -9 -72 -4 -29 -8 -63 -10 -74 -3
-12 -7 -38 -10 -59 -30 -186 -171 -667 -236 -800 -5 -11 -19 -45 -31 -75 -11
-30 -24 -59 -28 -65 -14 -18 -30 -75 -21 -75 4 0 10 3 12 8 2 4 73 59 158 122
85 63 157 117 160 120 3 3 57 43 120 90 63 47 117 87 120 90 3 3 39 30 80 60
41 30 80 59 86 65 7 5 225 170 486 365 l475 355 0 643 0 644 1070 1071 c589
590 1074 1082 1077 1094 7 23 13 49 22 98 2 17 25 129 49 250 24 121 47 235
50 254 3 19 8 37 10 40 2 4 6 27 10 51 3 25 17 97 30 160 13 63 26 126 29 140
2 14 16 81 30 150 14 69 27 136 30 150 2 14 12 59 21 100 9 41 18 91 21 110 3
19 16 87 29 150 13 63 26 126 29 140 13 70 56 288 61 308 5 20 -12 32 -26 18z"/>
</g>
</svg>
